<svg xmlns="http://www.w3.org/2000/svg" xmlns:xlink="http://www.w3.org/1999/xlink" xmlns:xodm="http://www.corel.com/coreldraw/odm/2003" xml:space="preserve" width="149.21mm" height="19.4977mm" style="shape-rendering:geometricPrecision; text-rendering:geometricPrecision; image-rendering:optimizeQuality; fill-rule:evenodd; clip-rule:evenodd" viewBox="0 0 14919.92 1949.63">
 <defs>
  <style type="text/css">
   <![CDATA[
    .fil1 {fill:#23627A}
    .fil2 {fill:#87CFB7}
    .fil0 {fill:#23627A;fill-rule:nonzero}
   ]]>
  </style>
 </defs>
 <g id="Vrstva_x0020_1">
  <metadata id="CorelCorpID_0Corel-Layer"></metadata>
  <g id="_2446490022192">
   <path class="fil0" d="M3488.28 367.44c0,-216.14 -144.82,-341.51 -488.5,-341.51l-553.33 0 -235.59 1491.4 559.81 0c443.1,0 665.73,-170.75 665.73,-445.27 0,-192.36 -121.04,-289.63 -259.38,-319.89l0 -4.33c153.47,-34.58 311.26,-149.13 311.26,-380.41zm-296.12 60.52c0,129.69 -101.59,218.31 -319.9,218.31l-231.27 0 58.36 -376.1 242.08 0c179.4,0 250.73,51.89 250.73,157.79zm-43.24 616.02c0,144.83 -108.06,222.64 -358.8,222.64l-246.4 0 64.85 -406.36 252.89 0c201.02,0 287.47,71.32 287.47,183.72zm1372.54 -337.18c0,-172.93 -125.37,-280.99 -332.88,-280.99 -311.25,0 -607.37,233.43 -607.37,665.72 0,300.44 164.27,451.75 436.61,451.75 239.93,0 360.97,-90.77 397.72,-123.21l-69.18 -201.01c-28.1,23.78 -116.71,88.61 -265.86,88.61 -151.3,0 -224.79,-71.32 -226.94,-239.92l155.62 0c352.31,0 512.27,-129.69 512.27,-360.95zm-360.97 -58.37c79.98,0 121.04,36.74 121.04,99.42 0,90.78 -67.01,144.82 -276.66,144.82l-131.85 0c45.39,-153.46 157.78,-244.24 287.47,-244.24zm961.85 -434.46l-285.31 0 -38.91 237.76 -129.69 0 -36.74 229.11 129.69 0 -58.37 376.09c-12.96,79.98 -19.45,142.67 -19.45,190.22 0,207.5 118.88,291.79 302.61,291.79 108.07,0 170.75,-23.78 196.69,-34.58l19.45 -224.79c-15.12,4.33 -51.88,15.14 -105.9,15.14 -82.13,0 -118.88,-34.59 -118.88,-125.37 0,-32.42 4.33,-77.81 12.97,-121.04l56.2 -367.45 259.38 0 36.74 -229.11 -259.38 0 38.91 -237.76zm1011.57 216.15c-220.47,0 -313.42,95.1 -365.29,194.53l-4.32 0 28.1 -172.92 -270.18 0 -168.6 1065.6 285.31 0 110.24 -689.5c43.23,-67.01 127.53,-153.47 280.99,-153.47 30.26,0 51.88,4.33 62.68,6.48l41.08 -250.72zm503.61 -395.55l-289.63 0 -41.07 270.18 287.47 0 43.23 -270.18zm-67.01 417.16l-287.46 0 -168.6 1065.6 287.47 0 168.59 -1065.6zm1210.42 0l-268.02 0 -21.62 114.56 -4.32 0c-23.78,-41.07 -92.94,-140.49 -274.5,-140.49 -274.51,0 -538.21,246.4 -538.21,663.56 0,298.28 138.33,453.91 354.48,453.91 207.51,0 302.61,-125.36 328.54,-162.11l4.32 0 -19.45 136.17 272.34 0 166.44 -1065.6zm-335.03 309.1l-67.01 430.12c-32.43,32.43 -105.91,110.24 -233.43,110.24 -110.24,0 -181.57,-69.17 -181.57,-224.79 0,-257.21 134.01,-412.84 296.12,-412.84 121.04,0 168.59,64.85 185.89,97.27zm845.14 -309.1l-272.35 0 -168.6 1065.6 287.48 0 116.72 -739.22c41.07,-38.91 125.36,-114.56 242.08,-114.56 97.26,0 140.49,51.88 140.49,157.79 0,36.75 -6.48,90.78 -17.29,151.3l-86.46 544.69 287.48 0 84.29 -542.52c15.13,-88.62 25.94,-179.41 25.94,-235.6 0,-207.5 -114.55,-313.41 -300.44,-313.41 -190.21,0 -304.77,101.58 -356.64,155.62l-4.33 0 21.63 -129.69z"></path>
   <path class="fil0" d="M10800.17 724.09l-447.42 0 -23.78 155.63 274.5 0 -73.48 451.74c-71.32,25.95 -170.76,47.56 -302.61,47.56 -311.25,0 -492.81,-149.15 -492.81,-479.85 0,-520.91 341.52,-739.23 704.65,-739.23 213.97,0 330.7,82.13 384.73,118.89l69.18 -153.47c-56.21,-41.07 -179.41,-125.36 -451.76,-125.36 -436.61,0 -884.04,285.31 -884.04,903.5 0,440.93 259.38,639.78 633.32,639.78 291.8,0 434.45,-86.45 501.46,-131.85l108.06 -687.34zm825.68 -278.83c-220.47,0 -315.58,103.75 -363.12,198.86l-2.17 0 30.27 -179.4 -168.6 0 -166.43 1052.63 175.08 0 114.56 -717.61c47.55,-86.45 142.65,-194.53 309.09,-194.53 21.61,0 36.74,2.16 45.39,2.16l25.94 -162.11zm987.78 430.14c0,-291.8 -177.24,-436.63 -417.16,-436.63 -322.06,0 -583.6,244.25 -583.6,667.89 0,289.64 175.08,436.62 417.17,436.62 324.22,0 583.59,-244.24 583.59,-667.88zm-177.24 4.32c0,313.41 -179.4,505.78 -389.06,505.78 -159.95,0 -257.21,-95.1 -257.21,-283.16 0,-317.73 179.4,-510.1 389.05,-510.1 159.96,0 257.22,97.27 257.22,287.48zm1350.91 -415l-177.24 0 -121.04 763c-51.88,54.03 -164.28,157.79 -322.07,157.79 -121.03,0 -185.89,-58.37 -185.89,-201.03 0,-41.07 6.49,-103.74 19.46,-181.56l86.46 -538.2 -177.25 0 -84.29 538.2c-15.13,95.1 -25.94,179.4 -25.94,233.43 0,203.18 118.89,306.93 302.61,306.93 194.53,0 315.58,-108.07 367.44,-164.27l4.33 0 -21.62 138.33 168.59 0 166.44 -1052.63zm1132.61 412.83c0,-296.12 -140.49,-438.78 -350.16,-438.78 -190.21,0 -304.76,112.39 -348,164.28l-4.32 0 21.61 -138.33 -168.6 0 -235.59 1484.91 177.25 0 86.44 -542.52 4.33 0c21.62,38.91 95.1,136.17 280.99,136.17 311.25,0 536.04,-261.54 536.04,-665.73zm-177.25 2.17c0,330.7 -159.94,505.78 -376.09,505.78 -146.97,0 -218.3,-92.95 -244.24,-138.34l77.81 -492.81c47.56,-54.04 162.11,-162.11 311.26,-162.11 144.82,0 231.26,92.93 231.26,287.48z"></path>
   <path class="fil1" d="M979.77 756.22l-23.96 152.23 542.78 0c107.58,0 197.49,-76.82 214.31,-183.06l0.05 -0.29c11.2,-70.72 -7.24,-136.04 -53.75,-190.5 -46.52,-54.45 -108.15,-82.85 -179.76,-82.85l-756.2 0.01 -23.97 152.23 152.22 0 -23.96 152.23 152.22 0zm176.18 -152.23l-23.96 152.23 -152.22 0 23.96 -152.23 152.22 0z"></path>
   <polygon class="fil1" points="786.5,899.17 807.54,765.5 673.88,765.5 652.84,899.17 "></polygon>
   <polygon class="fil1" points="646.62,740.69 665.7,619.51 544.63,619.51 525.5,740.69 "></polygon>
   <polygon class="fil1" points="458.97,886.64 476.07,778.02 367.46,778.02 350.37,886.64 "></polygon>
   <polygon class="fil1" points="319.18,728.14 334.3,632.06 238.22,632.06 223.1,728.14 "></polygon>
   <polygon class="fil2" points="617.84,923.98 496.7,923.98 477.64,1045.13 598.77,1045.13 "></polygon>
   <polygon class="fil2" points="411.06,1191.08 428.15,1082.47 319.55,1082.47 302.46,1191.08 "></polygon>
   <polygon class="fil2" points="223.33,1337.03 238.46,1240.96 142.39,1240.96 127.27,1337.03 "></polygon>
   <polygon class="fil2" points="83.54,1178.55 96.68,1095 13.14,1095 -0,1178.55 "></polygon>
   <polygon class="fil2" points="550.87,1349.56 569.93,1228.43 448.8,1228.43 429.73,1349.56 "></polygon>
   <polygon class="fil2" points="254.54,1495.52 271.64,1386.91 380.24,1386.91 363.15,1495.52 "></polygon>
   <path class="fil2" d="M755.68 1212.88l-23.94 152.22 152.21 0 -23.97 152.25 519.45 0.01c120.82,0 221.81,-86.29 240.67,-205.62l0.04 -0.24c10.29,-64.89 -6.66,-124.83 -49.34,-174.83 -42.69,-49.96 -99.24,-76.01 -164.95,-76.01l-778.44 0 -23.96 152.22 152.22 0z"></path>
   <polygon class="fil2" points="720.98,1374.39 587.33,1374.39 566.27,1508.05 699.94,1508.04 "></polygon>
   <polygon class="fil1" points="131.43,874.1 144.58,790.56 61.04,790.56 47.89,874.1 "></polygon>
  </g>
 </g>
</svg>